<svg width="190" height="166" viewBox="0 0 190 166" fill="none" xmlns="http://www.w3.org/2000/svg">
<g filter="url(#filter0_bd_191_42670)">
<path d="M50.9241 159.735C41.905 159.735 34.0474 158.027 27.3514 154.611C20.7921 151.194 15.6676 146.275 11.9779 139.852C8.42493 133.293 6.64844 125.572 6.64844 116.689V49.0458C6.64844 40.0267 8.42493 32.3058 11.9779 25.8831C15.6676 19.4604 20.7921 14.5408 27.3514 11.1245C34.0474 7.70818 41.905 6 50.9241 6C59.9433 6 67.7325 7.7765 74.2918 11.3295C80.8512 14.7458 85.9074 19.6654 89.4604 26.0881C93.0134 32.5108 94.7899 40.1634 94.7899 49.0458H76.3417C76.3417 40.5733 74.0869 34.0823 69.5773 29.5727C65.2044 24.9265 58.9867 22.6034 50.9241 22.6034C42.8616 22.6034 36.5072 24.8582 31.861 29.3678C27.3514 33.8773 25.0966 40.3683 25.0966 48.8409V116.689C25.0966 125.162 27.3514 131.721 31.861 136.367C36.5072 141.014 42.8616 143.337 50.9241 143.337C58.9867 143.337 65.2044 141.014 69.5773 136.367C74.0869 131.721 76.3417 125.162 76.3417 116.689V96.1912L54.5573 96.1912V79.3829L94.7899 79.3829V86.4879L77.881 152.421C76.7393 153.203 75.5429 153.933 74.2918 154.611C67.7325 158.027 59.9433 159.735 50.9241 159.735Z" fill="url(#paint0_linear_191_42670)" fill-opacity="0.7" shape-rendering="crispEdges"/>
<path fill-rule="evenodd" clip-rule="evenodd" d="M80.906 157.682H99.6155L109.455 117.916H154.755L164.594 157.682H183.247L144.506 8.04686H119.704L94.7899 103.545L80.906 157.682ZM113.144 102.338H150.861L139.382 56.2171C137.195 47.4713 135.487 40.1604 134.257 34.2843C133.027 28.4082 132.276 24.5819 132.002 22.8054C131.729 24.5819 130.977 28.4082 129.748 34.2843C128.518 40.1604 126.81 47.403 124.623 56.0122L113.144 102.338Z" fill="url(#paint1_linear_191_42670)" fill-opacity="0.7" shape-rendering="crispEdges"/>
<path d="M76.3417 95.9412L54.8073 95.9412V79.6329L94.5399 79.6329V86.4563L77.6622 152.268C76.5519 153.024 75.3894 153.732 74.1747 154.39C67.6584 157.783 59.911 159.485 50.9241 159.485C41.9372 159.485 34.1204 157.783 27.4661 154.388C20.9505 150.995 15.8619 146.11 12.1962 139.73C8.66753 133.214 6.89844 125.537 6.89844 116.689V49.0458C6.89844 40.0603 8.66805 32.3836 12.1957 26.0059C15.8614 19.6256 20.9501 14.7406 27.4661 11.3467C34.1203 7.9519 41.9371 6.25 50.9241 6.25C59.9103 6.25 67.6569 8.01987 74.1728 11.5493L74.1764 11.5512C80.6925 14.945 85.7126 19.8297 89.2416 26.2091C92.7369 32.5275 94.5063 40.0534 94.5394 48.7958H76.591C76.547 40.4026 74.2804 33.9239 69.7567 29.3986C65.325 24.6915 59.0347 22.3534 50.9241 22.3534C42.8134 22.3534 36.3905 24.623 31.6869 29.1884L31.6842 29.191C27.1139 33.7613 24.8466 40.3246 24.8466 48.8409V116.689C24.8466 125.206 27.1141 131.836 31.6816 136.541L31.6842 136.544C36.3875 141.247 42.8113 143.587 50.9241 143.587C59.0355 143.587 65.3262 141.248 69.7581 136.54C74.3247 131.834 76.5917 125.205 76.5917 116.689V96.1912V95.9412H76.3417ZM109.455 117.666H109.259L109.212 117.856L99.4198 157.432H81.2282L95.0318 103.608L95.032 103.607L119.897 8.29686H144.313L182.924 157.432H164.79L154.998 117.856L154.951 117.666H154.755H109.455ZM112.902 102.278L112.825 102.588H113.144H150.861H151.18L151.103 102.277L139.624 56.1568L139.624 56.1565C137.438 47.4124 135.731 40.1049 134.502 34.2331C133.272 28.3553 132.522 24.536 132.249 22.7674H131.755C131.483 24.536 130.733 28.3553 129.503 34.2331C128.274 40.1045 126.567 47.3435 124.381 55.9506L124.38 55.9521L112.902 102.278Z" stroke="#EBEBEB" stroke-opacity="0.7" stroke-width="0.5" shape-rendering="crispEdges"/>
</g>
<defs>
<filter id="filter0_bd_191_42670" x="0.648438" y="0" width="188.599" height="165.734" filterUnits="userSpaceOnUse" color-interpolation-filters="sRGB">
<feFlood flood-opacity="0" result="BackgroundImageFix"/>
<feGaussianBlur in="BackgroundImageFix" stdDeviation="2"/>
<feComposite in2="SourceAlpha" operator="in" result="effect1_backgroundBlur_191_42670"/>
<feColorMatrix in="SourceAlpha" type="matrix" values="0 0 0 0 0 0 0 0 0 0 0 0 0 0 0 0 0 0 127 0" result="hardAlpha"/>
<feOffset/>
<feGaussianBlur stdDeviation="3"/>
<feComposite in2="hardAlpha" operator="out"/>
<feColorMatrix type="matrix" values="0 0 0 0 0 0 0 0 0 0 0 0 0 0 0 0 0 0 0.15 0"/>
<feBlend mode="normal" in2="effect1_backgroundBlur_191_42670" result="effect2_dropShadow_191_42670"/>
<feBlend mode="normal" in="SourceGraphic" in2="effect2_dropShadow_191_42670" result="shape"/>
</filter>
<linearGradient id="paint0_linear_191_42670" x1="94.9479" y1="6" x2="174.513" y2="174.795" gradientUnits="userSpaceOnUse">
<stop stop-color="white"/>
<stop offset="1" stop-color="#999999" stop-opacity="0.34"/>
</linearGradient>
<linearGradient id="paint1_linear_191_42670" x1="94.9479" y1="6" x2="174.513" y2="174.795" gradientUnits="userSpaceOnUse">
<stop stop-color="white"/>
<stop offset="1" stop-color="#999999" stop-opacity="0.34"/>
</linearGradient>
</defs>
</svg>
