<svg width="278" height="251" viewBox="0 0 278 251" fill="none" xmlns="http://www.w3.org/2000/svg">
<g filter="url(#filter0_dd_273_43384)">
<g clip-path="url(#clip0_273_43384)">
<rect x="10" y="10" width="258.494" height="408.148" rx="18.1399" fill="#151515"/>
<g opacity="0.4">
<rect width="0.633022" height="0.633022" transform="matrix(4.37114e-08 1 1 -4.37114e-08 125.458 30.5703)" fill="#707070"/>
</g>
<g opacity="0.4">
<rect width="0.633022" height="0.633022" transform="matrix(4.37114e-08 1 1 -4.37114e-08 95.0752 216.045)" fill="#707070"/>
</g>
<g opacity="0.4">
<rect width="0.633022" height="0.633022" transform="matrix(4.37114e-08 1 1 -4.37114e-08 115.332 30.5645)" fill="#707070"/>
</g>
<g opacity="0.4">
<rect width="0.633022" height="0.633022" transform="matrix(-1.31134e-07 -1 -1 1.31134e-07 245.434 216.803)" fill="#707070"/>
</g>
<g opacity="0.4">
<rect width="0.633022" height="0.633022" transform="matrix(-1.31134e-07 -1 -1 1.31134e-07 265.691 31.3262)" fill="#EDEDED"/>
</g>
<g opacity="0.4">
<rect width="0.633022" height="0.633022" transform="matrix(-1.31134e-07 -1 -1 1.31134e-07 255.562 31.3301)" fill="#EDEDED"/>
</g>
<rect width="0.633022" height="0.633022" transform="matrix(-1.31134e-07 -1 -1 1.31134e-07 257.159 121.852)" fill="#EDEDED"/>
<rect width="0.633022" height="0.633022" transform="matrix(-1.31134e-07 -1 -1 1.31134e-07 85.9658 206.99)" fill="#EDEDED"/>
<rect width="0.633022" height="0.633022" transform="matrix(-1.31134e-07 -1 -1 1.31134e-07 257.16 111.723)" fill="#EDEDED"/>
<rect width="0.633022" height="0.633022" transform="matrix(-1.31134e-07 -1 -1 1.31134e-07 85.9639 196.865)" fill="#EDEDED"/>
<rect width="0.633022" height="0.633022" transform="matrix(-1.31134e-07 -1 -1 1.31134e-07 257.16 101.596)" fill="#EDEDED"/>
<rect width="0.633022" height="0.633022" transform="matrix(-1.31134e-07 -1 -1 1.31134e-07 85.9639 186.738)" fill="#EDEDED"/>
<rect width="3.16511" height="3.16511" transform="matrix(-1.31134e-07 -1 -1 1.31134e-07 258.425 92.7344)" fill="#EDEDED"/>
<g opacity="0.4">
<rect width="0.633022" height="0.633022" transform="matrix(4.37114e-08 1 1 -4.37114e-08 244.674 30.5703)" fill="#EDEDED"/>
</g>
<g opacity="0.4">
<rect width="0.633022" height="0.633022" transform="matrix(4.37114e-08 1 1 -4.37114e-08 214.288 216.043)" fill="#EDEDED"/>
</g>
<rect width="0.633022" height="0.633022" transform="matrix(4.37114e-08 1 1 -4.37114e-08 246.27 121.09)" fill="#EDEDED"/>
<rect width="0.633022" height="0.633022" transform="matrix(4.37114e-08 1 1 -4.37114e-08 75.0762 206.232)" fill="#EDEDED"/>
<g opacity="0.4">
<rect width="0.633022" height="0.633022" transform="matrix(4.37114e-08 1 1 -4.37114e-08 234.547 30.5664)" fill="#EDEDED"/>
</g>
<g opacity="0.4">
<rect width="0.633022" height="0.633022" transform="matrix(4.37114e-08 1 1 -4.37114e-08 134.881 216.045)" fill="#EDEDED"/>
</g>
<rect width="0.633022" height="0.633022" transform="matrix(4.37114e-08 1 1 -4.37114e-08 236.14 121.09)" fill="#EDEDED"/>
<rect width="0.633022" height="0.633022" transform="matrix(4.37114e-08 1 1 -4.37114e-08 64.9443 206.232)" fill="#EDEDED"/>
<g opacity="0.4">
<rect width="0.633022" height="0.633022" transform="matrix(4.37114e-08 1 1 -4.37114e-08 215.568 50.8242)" fill="#EDEDED"/>
</g>
<g opacity="0.4">
<rect width="0.633022" height="0.633022" transform="matrix(4.37114e-08 1 1 -4.37114e-08 44.373 94.1895)" fill="#EDEDED"/>
</g>
<rect width="0.633022" height="0.633022" transform="matrix(4.37114e-08 1 1 -4.37114e-08 167.039 177.115)" fill="#EDEDED"/>
<g opacity="0.4">
<rect width="0.633022" height="0.633022" transform="matrix(4.37114e-08 1 1 -4.37114e-08 245.953 91.0234)" fill="#EDEDED"/>
</g>
<g opacity="0.4">
<rect width="0.633022" height="0.633022" transform="matrix(4.37114e-08 1 1 -4.37114e-08 74.7588 176.162)" fill="#EDEDED"/>
</g>
<g opacity="0.4">
<rect width="0.633022" height="0.633022" transform="matrix(4.37114e-08 1 1 -4.37114e-08 115.333 40.6992)" fill="#707070"/>
</g>
<g opacity="0.4">
<rect width="0.633022" height="0.633022" transform="matrix(4.37114e-08 1 1 -4.37114e-08 244.673 226.174)" fill="#707070"/>
</g>
<g opacity="0.4">
<rect width="0.633022" height="0.633022" transform="matrix(4.37114e-08 1 1 -4.37114e-08 264.931 40.6992)" fill="#EDEDED"/>
</g>
<g opacity="0.4">
<rect width="0.633022" height="0.633022" transform="matrix(4.37114e-08 1 1 -4.37114e-08 226.015 80.8965)" fill="#EDEDED"/>
</g>
<g opacity="0.4">
<rect width="0.633022" height="0.633022" transform="matrix(4.37114e-08 1 1 -4.37114e-08 54.8193 166.033)" fill="#EDEDED"/>
</g>
<rect width="0.633022" height="0.633022" transform="matrix(4.37114e-08 1 1 -4.37114e-08 246.585 171.414)" fill="#EDEDED"/>
<g opacity="0.4">
<rect width="0.633022" height="0.633022" transform="matrix(4.37114e-08 1 1 -4.37114e-08 234.547 40.6973)" fill="#EDEDED"/>
</g>
<g opacity="0.4">
<rect width="0.633022" height="0.633022" transform="matrix(4.37114e-08 1 1 -4.37114e-08 134.884 226.174)" fill="#EDEDED"/>
</g>
<rect width="3.16511" height="3.16511" transform="matrix(4.37114e-08 1 1 -4.37114e-08 165.775 165.717)" fill="#EDEDED"/>
<g opacity="0.4">
<rect width="0.633022" height="0.633022" transform="matrix(4.37114e-08 1 1 -4.37114e-08 64.9473 216.363)" fill="#707070"/>
</g>
<g opacity="0.4">
<rect width="0.633022" height="0.633022" transform="matrix(4.37114e-08 1 1 -4.37114e-08 245.953 80.8965)" fill="#EDEDED"/>
</g>
<g opacity="0.4">
<rect width="0.633022" height="0.633022" transform="matrix(4.37114e-08 1 1 -4.37114e-08 74.7588 166.033)" fill="#EDEDED"/>
</g>
<g opacity="0.4">
<rect width="0.633022" height="0.633022" transform="matrix(4.37114e-08 1 1 -4.37114e-08 254.803 40.6973)" fill="#EDEDED"/>
</g>
<rect width="0.633022" height="0.633022" transform="matrix(4.37114e-08 1 1 -4.37114e-08 187.297 166.984)" fill="#EDEDED"/>
<rect width="0.633022" height="0.633022" transform="matrix(4.37114e-08 1 1 -4.37114e-08 85.2041 216.363)" fill="#EDEDED"/>
<g opacity="0.4">
<rect width="0.633022" height="0.633022" transform="matrix(4.37114e-08 1 1 -4.37114e-08 224.417 40.6973)" fill="#EDEDED"/>
</g>
<g opacity="0.4">
<rect width="0.633022" height="0.633022" transform="matrix(4.37114e-08 1 1 -4.37114e-08 124.753 226.174)" fill="#EDEDED"/>
</g>
<rect width="0.633022" height="0.633022" transform="matrix(4.37114e-08 1 1 -4.37114e-08 156.912 166.982)" fill="#EDEDED"/>
<rect width="0.633022" height="0.633022" transform="matrix(4.37114e-08 1 1 -4.37114e-08 146.783 166.982)" fill="#EDEDED"/>
<rect width="0.633022" height="0.633022" transform="matrix(4.37114e-08 1 1 -4.37114e-08 136.652 166.984)" fill="#EDEDED"/>
<g opacity="0.4">
<rect width="0.633022" height="0.633022" transform="matrix(4.37114e-08 1 1 -4.37114e-08 54.8193 216.359)" fill="#707070"/>
</g>
<g opacity="0.4">
<rect width="0.633022" height="0.633022" transform="matrix(4.37114e-08 1 1 -4.37114e-08 235.827 80.8945)" fill="#EDEDED"/>
</g>
<g opacity="0.4">
<rect width="0.633022" height="0.633022" transform="matrix(4.37114e-08 1 1 -4.37114e-08 64.6318 166.033)" fill="#EDEDED"/>
</g>
<rect width="0.633022" height="0.633022" transform="matrix(4.37114e-08 1 1 -4.37114e-08 256.399 171.414)" fill="#EDEDED"/>
<g opacity="0.4">
<rect width="0.633022" height="0.633022" transform="matrix(4.37114e-08 1 1 -4.37114e-08 244.674 40.6934)" fill="#EDEDED"/>
</g>
<g opacity="0.4">
<rect width="0.633022" height="0.633022" transform="matrix(4.37114e-08 1 1 -4.37114e-08 214.287 226.174)" fill="#EDEDED"/>
</g>
<rect width="3.16511" height="3.16511" transform="matrix(4.37114e-08 1 1 -4.37114e-08 175.901 165.719)" fill="#707070"/>
<g opacity="0.4">
<rect width="0.633022" height="0.633022" transform="matrix(4.37114e-08 1 1 -4.37114e-08 75.0752 216.363)" fill="#707070"/>
</g>
<g opacity="0.4">
<rect width="0.633022" height="0.633022" transform="matrix(-1.31134e-07 -1 -1 1.31134e-07 126.221 51.5898)" fill="#707070"/>
</g>
<g opacity="0.4">
<rect width="0.633022" height="0.633022" transform="matrix(-1.31134e-07 -1 -1 1.31134e-07 95.8369 237.062)" fill="#707070"/>
</g>
<g opacity="0.4">
<rect width="0.633022" height="0.633022" transform="matrix(-1.31134e-07 -1 -1 1.31134e-07 116.094 51.584)" fill="#707070"/>
</g>
<rect width="0.633022" height="0.633022" transform="matrix(-1.31134e-07 -1 -1 1.31134e-07 256.841 51.5898)" fill="#EDEDED"/>
<rect width="0.633022" height="0.633022" transform="matrix(-1.31134e-07 -1 -1 1.31134e-07 85.6484 84.5059)" fill="#EDEDED"/>
<g opacity="0.4">
<rect width="0.633022" height="0.633022" transform="matrix(-1.31134e-07 -1 -1 1.31134e-07 226.459 51.584)" fill="#EDEDED"/>
</g>
<g opacity="0.4">
<rect width="0.633022" height="0.633022" transform="matrix(-1.31134e-07 -1 -1 1.31134e-07 55.2646 94.9473)" fill="#EDEDED"/>
</g>
<rect width="0.633022" height="0.633022" transform="matrix(-1.31134e-07 -1 -1 1.31134e-07 177.932 177.871)" fill="#EDEDED"/>
<g opacity="0.4">
<rect width="0.633022" height="0.633022" transform="matrix(4.37114e-08 1 1 -4.37114e-08 245.954 50.8242)" fill="#EDEDED"/>
</g>
<g opacity="0.4">
<rect width="0.633022" height="0.633022" transform="matrix(4.37114e-08 1 1 -4.37114e-08 74.7568 94.1895)" fill="#EDEDED"/>
</g>
<g opacity="0.4">
<rect width="0.633022" height="0.633022" transform="matrix(4.37114e-08 1 1 -4.37114e-08 235.825 50.8262)" fill="#EDEDED"/>
</g>
<g opacity="0.4">
<rect width="0.633022" height="0.633022" transform="matrix(4.37114e-08 1 1 -4.37114e-08 64.6299 94.1895)" fill="#EDEDED"/>
</g>
<rect width="0.633022" height="0.633022" transform="matrix(4.37114e-08 1 1 -4.37114e-08 187.297 177.113)" fill="#EDEDED"/>
<g opacity="0.4">
<rect width="3.16511" height="3.16511" transform="matrix(4.37114e-08 1 1 -4.37114e-08 134.321 29.8711)" fill="#EDEDED"/>
</g>
<g opacity="0.4">
<rect width="3.16511" height="3.16511" transform="matrix(4.37114e-08 1 1 -4.37114e-08 33.0352 92.9199)" fill="#EDEDED"/>
</g>
<rect width="0.633022" height="0.633022" transform="matrix(4.37114e-08 1 1 -4.37114e-08 156.912 177.113)" fill="#EDEDED"/>
<g opacity="0.4">
<rect width="0.633022" height="0.633022" transform="matrix(4.37114e-08 1 1 -4.37114e-08 235.827 91.0195)" fill="#EDEDED"/>
</g>
<g opacity="0.4">
<rect width="0.633022" height="0.633022" transform="matrix(4.37114e-08 1 1 -4.37114e-08 64.6299 176.166)" fill="#EDEDED"/>
</g>
<rect width="0.633022" height="0.633022" transform="matrix(4.37114e-08 1 1 -4.37114e-08 256.396 181.549)" fill="#EDEDED"/>
<g opacity="0.4">
<rect width="0.633022" height="0.633022" transform="matrix(4.37114e-08 1 1 -4.37114e-08 225.696 50.8262)" fill="#EDEDED"/>
</g>
<g opacity="0.4">
<rect width="0.633022" height="0.633022" transform="matrix(4.37114e-08 1 1 -4.37114e-08 54.502 83.7441)" fill="#EDEDED"/>
</g>
<rect width="0.633022" height="0.633022" transform="matrix(4.37114e-08 1 1 -4.37114e-08 177.166 177.115)" fill="#EDEDED"/>
<g opacity="0.4">
<rect width="0.633022" height="0.633022" transform="matrix(4.37114e-08 1 1 -4.37114e-08 225.696 91.0234)" fill="#EDEDED"/>
</g>
<g opacity="0.4">
<rect width="0.633022" height="0.633022" transform="matrix(4.37114e-08 1 1 -4.37114e-08 54.5029 176.164)" fill="#EDEDED"/>
</g>
<rect width="0.633022" height="0.633022" transform="matrix(4.37114e-08 1 1 -4.37114e-08 246.27 181.545)" fill="#EDEDED"/>
<g opacity="0.4">
<rect width="0.633022" height="0.633022" transform="matrix(4.37114e-08 1 1 -4.37114e-08 105.204 60.9531)" fill="#707070"/>
</g>
<g opacity="0.4">
<rect width="0.633022" height="0.633022" transform="matrix(4.37114e-08 1 1 -4.37114e-08 95.0752 246.428)" fill="#707070"/>
</g>
<g opacity="0.4">
<rect width="0.633022" height="0.633022" transform="matrix(4.37114e-08 1 1 -4.37114e-08 115.331 60.957)" fill="#707070"/>
</g>
<g opacity="0.4">
<rect width="0.633022" height="0.633022" transform="matrix(4.37114e-08 1 1 -4.37114e-08 256.082 60.957)" fill="#707070"/>
</g>
<g opacity="0.4">
<rect width="0.633022" height="0.633022" transform="matrix(-1.31134e-07 -1 -1 1.31134e-07 246.716 61.7168)" fill="#EDEDED"/>
</g>
<g opacity="0.4">
<rect width="0.633022" height="0.633022" transform="matrix(-1.31134e-07 -1 -1 1.31134e-07 75.5215 146.855)" fill="#EDEDED"/>
</g>
<g opacity="0.4">
<rect width="0.633022" height="0.633022" transform="matrix(-1.31134e-07 -1 -1 1.31134e-07 216.329 61.7168)" fill="#EDEDED"/>
</g>
<g opacity="0.4">
<rect width="0.633022" height="0.633022" transform="matrix(-1.31134e-07 -1 -1 1.31134e-07 45.1357 146.854)" fill="#EDEDED"/>
</g>
<rect width="0.633022" height="0.633022" transform="matrix(-1.31134e-07 -1 -1 1.31134e-07 236.901 152.236)" fill="#EDEDED"/>
<g opacity="0.4">
<rect width="0.633022" height="0.633022" transform="matrix(-1.31134e-07 -1 -1 1.31134e-07 236.586 61.7168)" fill="#EDEDED"/>
</g>
<g opacity="0.4">
<rect width="0.633022" height="0.633022" transform="matrix(-1.31134e-07 -1 -1 1.31134e-07 65.3926 146.855)" fill="#EDEDED"/>
</g>
<rect width="0.633022" height="0.633022" transform="matrix(-1.31134e-07 -1 -1 1.31134e-07 257.159 152.236)" fill="#EDEDED"/>
<g opacity="0.4">
<rect width="0.633022" height="0.633022" transform="matrix(-1.31134e-07 -1 -1 1.31134e-07 136.923 61.7129)" fill="#EDEDED"/>
</g>
<g opacity="0.4">
<rect width="0.633022" height="0.633022" transform="matrix(-1.31134e-07 -1 -1 1.31134e-07 35.0059 146.855)" fill="#EDEDED"/>
</g>
<rect width="0.633022" height="0.633022" transform="matrix(-1.31134e-07 -1 -1 1.31134e-07 226.773 152.234)" fill="#EDEDED"/>
<rect width="0.633022" height="0.633022" transform="matrix(-1.31134e-07 -1 -1 1.31134e-07 236.586 101.912)" fill="#EDEDED"/>
<rect width="0.633022" height="0.633022" transform="matrix(-1.31134e-07 -1 -1 1.31134e-07 65.3906 187.053)" fill="#EDEDED"/>
<rect width="3.16511" height="3.16511" transform="matrix(-1.31134e-07 -1 -1 1.31134e-07 258.426 193.697)" fill="#EDEDED"/>
<g opacity="0.4">
<rect width="0.633022" height="0.633022" transform="matrix(-1.31134e-07 -1 -1 1.31134e-07 226.458 61.7168)" fill="#EDEDED"/>
</g>
<g opacity="0.4">
<rect width="0.633022" height="0.633022" transform="matrix(-1.31134e-07 -1 -1 1.31134e-07 55.2607 146.855)" fill="#EDEDED"/>
</g>
<rect width="0.633022" height="0.633022" transform="matrix(-1.31134e-07 -1 -1 1.31134e-07 247.031 152.234)" fill="#EDEDED"/>
<g opacity="0.4">
<rect width="0.633022" height="0.633022" transform="matrix(-1.31134e-07 -1 -1 1.31134e-07 215.05 61.7148)" fill="#EDEDED"/>
</g>
<g opacity="0.4">
<rect width="0.633022" height="0.633022" transform="matrix(-1.31134e-07 -1 -1 1.31134e-07 24.9336 146.854)" fill="#EDEDED"/>
</g>
<rect width="0.633022" height="0.633022" transform="matrix(-1.31134e-07 -1 -1 1.31134e-07 226.46 101.91)" fill="#EDEDED"/>
<rect width="0.633022" height="0.633022" transform="matrix(-1.31134e-07 -1 -1 1.31134e-07 55.2627 187.051)" fill="#EDEDED"/>
<rect width="0.633022" height="0.633022" transform="matrix(-1.31134e-07 -1 -1 1.31134e-07 247.03 192.43)" fill="#EDEDED"/>
<g opacity="0.4">
<rect width="0.633022" height="0.633022" transform="matrix(-1.31134e-07 -1 -1 1.31134e-07 216.33 61.7148)" fill="#707070"/>
</g>
<g opacity="0.4">
<rect width="0.633022" height="0.633022" transform="matrix(-1.31134e-07 -1 -1 1.31134e-07 45.1338 146.855)" fill="#707070"/>
</g>
<g opacity="0.4">
<rect width="0.633022" height="0.633022" transform="matrix(-1.31134e-07 -1 -1 1.31134e-07 236.902 152.236)" fill="#707070"/>
</g>
<g opacity="0.4">
<rect width="0.633022" height="0.633022" transform="matrix(-1.31134e-07 -1 -1 1.31134e-07 246.716 101.91)" fill="#707070"/>
</g>
<g opacity="0.4">
<rect width="0.633022" height="0.633022" transform="matrix(-1.31134e-07 -1 -1 1.31134e-07 75.5195 187.053)" fill="#707070"/>
</g>
<g opacity="0.4">
<rect width="0.633022" height="0.633022" transform="matrix(-1.31134e-07 -1 -1 1.31134e-07 256.845 71.8398)" fill="#707070"/>
</g>
<g opacity="0.4">
<rect width="0.633022" height="0.633022" transform="matrix(4.37114e-08 1 1 -4.37114e-08 245.954 71.0801)" fill="#707070"/>
</g>
<g opacity="0.4">
<rect width="0.633022" height="0.633022" transform="matrix(4.37114e-08 1 1 -4.37114e-08 74.7588 156.223)" fill="#707070"/>
</g>
<g opacity="0.4">
<rect width="0.633022" height="0.633022" transform="matrix(4.37114e-08 1 1 -4.37114e-08 235.826 71.084)" fill="#EDEDED"/>
</g>
<g opacity="0.4">
<rect width="0.633022" height="0.633022" transform="matrix(4.37114e-08 1 1 -4.37114e-08 64.6299 156.223)" fill="#EDEDED"/>
</g>
<rect width="0.633022" height="0.633022" transform="matrix(4.37114e-08 1 1 -4.37114e-08 256.396 161.604)" fill="#EDEDED"/>
<g opacity="0.4">
<rect width="0.633022" height="0.633022" transform="matrix(4.37114e-08 1 1 -4.37114e-08 34.3018 156.221)" fill="#EDEDED"/>
</g>
<rect width="0.633022" height="0.633022" transform="matrix(4.37114e-08 1 1 -4.37114e-08 226.014 161.602)" fill="#EDEDED"/>
<rect width="0.633022" height="0.633022" transform="matrix(4.37114e-08 1 1 -4.37114e-08 235.826 111.277)" fill="#EDEDED"/>
<rect width="0.633022" height="0.633022" transform="matrix(4.37114e-08 1 1 -4.37114e-08 64.6299 196.418)" fill="#EDEDED"/>
<rect width="0.633022" height="0.633022" transform="matrix(4.37114e-08 1 1 -4.37114e-08 256.396 201.801)" fill="#EDEDED"/>
<rect width="0.633022" height="0.633022" transform="matrix(4.37114e-08 1 1 -4.37114e-08 256.396 211.613)" fill="#EDEDED"/>
<rect width="0.633022" height="0.633022" transform="matrix(4.37114e-08 1 1 -4.37114e-08 266.332 212.879)" fill="#EDEDED"/>
<g opacity="0.4">
<rect width="0.633022" height="0.633022" transform="matrix(4.37114e-08 1 1 -4.37114e-08 224.416 30.8848)" fill="#EDEDED"/>
</g>
<g opacity="0.4">
<rect width="0.633022" height="0.633022" transform="matrix(4.37114e-08 1 1 -4.37114e-08 124.755 216.363)" fill="#EDEDED"/>
</g>
<rect width="3.16511" height="3.16511" transform="matrix(4.37114e-08 1 1 -4.37114e-08 224.748 120.139)" fill="#707070"/>
<rect width="0.633022" height="0.633022" transform="matrix(4.37114e-08 1 1 -4.37114e-08 54.8193 206.551)" fill="#EDEDED"/>
<g opacity="0.4">
<rect width="0.633022" height="0.633022" transform="matrix(4.37114e-08 1 1 -4.37114e-08 235.824 71.082)" fill="#EDEDED"/>
</g>
<g opacity="0.4">
<rect width="0.633022" height="0.633022" transform="matrix(4.37114e-08 1 1 -4.37114e-08 64.6289 156.223)" fill="#EDEDED"/>
</g>
<rect width="0.633022" height="0.633022" transform="matrix(4.37114e-08 1 1 -4.37114e-08 256.396 161.604)" fill="#EDEDED"/>
<g opacity="0.4">
<rect width="0.633022" height="0.633022" transform="matrix(4.37114e-08 1 1 -4.37114e-08 225.696 71.084)" fill="#707070"/>
</g>
<g opacity="0.4">
<rect width="0.633022" height="0.633022" transform="matrix(4.37114e-08 1 1 -4.37114e-08 54.501 156.223)" fill="#707070"/>
</g>
<g opacity="0.4">
<rect width="0.633022" height="0.633022" transform="matrix(4.37114e-08 1 1 -4.37114e-08 246.27 161.604)" fill="#707070"/>
</g>
<g opacity="0.4">
<rect width="0.633022" height="0.633022" transform="matrix(4.37114e-08 1 1 -4.37114e-08 215.566 71.084)" fill="#707070"/>
</g>
<g opacity="0.4">
<rect width="0.633022" height="0.633022" transform="matrix(4.37114e-08 1 1 -4.37114e-08 44.374 156.221)" fill="#707070"/>
</g>
<g opacity="0.4">
<rect width="0.633022" height="0.633022" transform="matrix(4.37114e-08 1 1 -4.37114e-08 236.141 161.602)" fill="#707070"/>
</g>
<g opacity="0.4">
<rect width="0.633022" height="0.633022" transform="matrix(-1.31134e-07 -1 -1 1.31134e-07 256.842 81.9727)" fill="#707070"/>
</g>
<g opacity="0.4">
<rect width="0.633022" height="0.633022" transform="matrix(-1.31134e-07 -1 -1 1.31134e-07 246.715 81.9727)" fill="#707070"/>
</g>
<g opacity="0.4">
<rect width="3.16511" height="3.16511" transform="matrix(-1.31134e-07 -1 -1 1.31134e-07 76.7861 168.377)" fill="#EDEDED"/>
</g>
<g opacity="0.4">
<rect width="0.633022" height="0.633022" transform="matrix(4.37114e-08 1 1 -4.37114e-08 215.568 81.2148)" fill="#707070"/>
</g>
<g opacity="0.4">
<rect width="0.633022" height="0.633022" transform="matrix(4.37114e-08 1 1 -4.37114e-08 44.373 166.352)" fill="#707070"/>
</g>
<g opacity="0.4">
<rect width="0.633022" height="0.633022" transform="matrix(4.37114e-08 1 1 -4.37114e-08 236.141 171.736)" fill="#707070"/>
</g>
<path d="M98.765 106.257V103.599H98.6688L96.9008 107.917L95.1327 103.599H95.0365V106.257V110.467H94.1104V102.072H95.4094L96.8887 105.776H96.9609L98.4403 102.072H99.6911V110.467H98.765V106.257ZM109.455 110.467L108.745 108.073H105.798L105.089 110.467H104.042L106.616 102.072H107.951L110.525 110.467H109.455ZM107.326 103.142H107.218L106.039 107.195H108.504L107.326 103.142ZM116.139 110.467H115.129V102.072H118.184C118.961 102.072 119.555 102.284 119.964 102.709C120.373 103.134 120.577 103.727 120.577 104.489C120.577 105.171 120.401 105.716 120.048 106.125C119.695 106.534 119.182 106.77 118.508 106.835L120.649 110.467H119.519L117.474 106.883H116.139V110.467ZM118.16 106.029C118.585 106.029 118.913 105.924 119.146 105.716C119.386 105.499 119.507 105.195 119.507 104.802V104.176C119.507 103.784 119.386 103.483 119.146 103.274C118.913 103.058 118.585 102.95 118.16 102.95H116.139V106.029H118.16ZM129.763 109.348H129.703C129.631 109.509 129.547 109.665 129.451 109.817C129.354 109.97 129.23 110.106 129.078 110.226C128.933 110.339 128.757 110.431 128.549 110.503C128.34 110.575 128.092 110.611 127.803 110.611C126.889 110.611 126.207 110.242 125.758 109.505C125.317 108.767 125.097 107.709 125.097 106.329C125.097 104.886 125.341 103.792 125.83 103.046C126.319 102.3 127.073 101.927 128.092 101.927C128.484 101.927 128.825 101.979 129.114 102.084C129.403 102.188 129.647 102.328 129.848 102.505C130.056 102.681 130.228 102.882 130.365 103.106C130.501 103.323 130.613 103.543 130.701 103.768L129.835 104.164C129.763 103.98 129.679 103.808 129.583 103.647C129.495 103.479 129.382 103.335 129.246 103.214C129.118 103.086 128.961 102.986 128.777 102.914C128.593 102.841 128.376 102.805 128.128 102.805C127.454 102.805 126.957 103.058 126.636 103.563C126.323 104.068 126.167 104.742 126.167 105.584V106.883C126.167 107.308 126.199 107.696 126.263 108.049C126.327 108.394 126.432 108.695 126.576 108.951C126.728 109.208 126.921 109.408 127.153 109.553C127.394 109.689 127.687 109.757 128.031 109.757C128.577 109.757 129.002 109.593 129.306 109.264C129.611 108.935 129.763 108.51 129.763 107.989V107.123H127.995V106.317H130.701V110.467H129.763V109.348ZM140.585 110.467L139.876 108.073H136.929L136.219 110.467H135.173L137.747 102.072H139.082L141.656 110.467H140.585ZM138.456 103.142H138.348L137.169 107.195H139.635L138.456 103.142ZM147.27 110.467H146.259V102.072H149.314C150.092 102.072 150.685 102.284 151.094 102.709C151.503 103.134 151.708 103.727 151.708 104.489C151.708 105.171 151.531 105.716 151.179 106.125C150.826 106.534 150.313 106.77 149.639 106.835L151.78 110.467H150.649L148.605 106.883H147.27V110.467ZM149.29 106.029C149.715 106.029 150.044 105.924 150.277 105.716C150.517 105.499 150.637 105.195 150.637 104.802V104.176C150.637 103.784 150.517 103.483 150.277 103.274C150.044 103.058 149.715 102.95 149.29 102.95H147.27V106.029H149.29ZM156.564 110.467V109.661H158.657V102.877H156.564V102.072H161.76V102.877H159.667V109.661H161.76V110.467H156.564ZM170.044 102.95V110.467H169.034V102.95H166.231V102.072H172.846V102.95H170.044ZM182.093 110.467L181.383 108.073H178.436L177.727 110.467H176.68L179.254 102.072H180.589L183.163 110.467H182.093ZM179.964 103.142H179.856L178.677 107.195H181.143L179.964 103.142ZM77.7055 130.611C76.9518 130.611 76.3344 130.475 75.8533 130.202C75.3722 129.922 74.9753 129.565 74.6626 129.132L75.3963 128.53C75.725 128.939 76.0698 129.244 76.4306 129.444C76.7995 129.645 77.2365 129.745 77.7416 129.745C78.351 129.745 78.8161 129.605 79.1368 129.324C79.4575 129.044 79.6179 128.651 79.6179 128.146C79.6179 127.737 79.5016 127.42 79.2691 127.195C79.0366 126.963 78.6316 126.798 78.0543 126.702L77.1162 126.546C76.7073 126.474 76.3625 126.365 76.0818 126.221C75.8092 126.077 75.5887 125.904 75.4203 125.704C75.2519 125.495 75.1317 125.271 75.0595 125.03C74.9873 124.782 74.9513 124.525 74.9513 124.261C74.9513 123.491 75.2038 122.91 75.709 122.517C76.2141 122.124 76.8957 121.927 77.7536 121.927C78.4272 121.927 78.9925 122.04 79.4495 122.264C79.9146 122.489 80.2874 122.805 80.5681 123.214L79.8584 123.828C79.6259 123.523 79.3453 123.274 79.0165 123.082C78.6878 122.89 78.2628 122.793 77.7416 122.793C77.1723 122.793 76.7353 122.914 76.4306 123.154C76.1259 123.395 75.9736 123.755 75.9736 124.237C75.9736 124.613 76.0858 124.922 76.3104 125.163C76.5429 125.395 76.9558 125.564 77.5492 125.668L78.4512 125.824C78.8602 125.896 79.205 126.005 79.4856 126.149C79.7662 126.293 79.9907 126.466 80.1591 126.666C80.3355 126.867 80.4598 127.091 80.532 127.34C80.6041 127.588 80.6402 127.849 80.6402 128.121C80.6402 128.899 80.3836 129.509 79.8705 129.95C79.3653 130.391 78.6437 130.611 77.7055 130.611ZM90.2834 130.467L89.5738 128.073H86.6271L85.9175 130.467H84.8711L87.4449 122.072H88.78L91.3539 130.467H90.2834ZM88.1546 123.142H88.0463L86.8676 127.195H89.3333L88.1546 123.142ZM96.8356 123.359H96.7514V130.467H95.8373V122.072H97.2686L100.131 129.108H100.215V122.072H101.129V130.467H99.6981L96.8356 123.359ZM106.395 122.072H108.74C109.766 122.072 110.532 122.424 111.037 123.13C111.542 123.836 111.795 124.882 111.795 126.269C111.795 127.656 111.542 128.703 111.037 129.408C110.532 130.114 109.766 130.467 108.74 130.467H106.395V122.072ZM108.692 129.589C109.365 129.589 109.87 129.356 110.207 128.891C110.552 128.426 110.724 127.769 110.724 126.919V125.62C110.724 124.77 110.552 124.112 110.207 123.647C109.87 123.182 109.365 122.95 108.692 122.95H107.405V129.589H108.692ZM119.237 130.611C118.724 130.611 118.283 130.515 117.914 130.322C117.545 130.122 117.241 129.837 117 129.469C116.759 129.1 116.583 128.647 116.471 128.109C116.359 127.572 116.302 126.959 116.302 126.269C116.302 125.588 116.359 124.978 116.471 124.441C116.583 123.896 116.759 123.439 117 123.07C117.241 122.701 117.545 122.42 117.914 122.228C118.283 122.028 118.724 121.927 119.237 121.927C119.75 121.927 120.191 122.028 120.56 122.228C120.929 122.42 121.234 122.701 121.474 123.07C121.715 123.439 121.891 123.896 122.003 124.441C122.116 124.978 122.172 125.588 122.172 126.269C122.172 126.959 122.116 127.572 122.003 128.109C121.891 128.647 121.715 129.1 121.474 129.469C121.234 129.837 120.929 130.122 120.56 130.322C120.191 130.515 119.75 130.611 119.237 130.611ZM119.237 129.733C119.574 129.733 119.858 129.669 120.091 129.541C120.324 129.404 120.516 129.216 120.668 128.975C120.821 128.735 120.929 128.446 120.993 128.109C121.065 127.765 121.101 127.38 121.101 126.955V125.584C121.101 125.167 121.065 124.786 120.993 124.441C120.929 124.096 120.821 123.804 120.668 123.563C120.516 123.323 120.324 123.138 120.091 123.01C119.858 122.873 119.574 122.805 119.237 122.805C118.9 122.805 118.616 122.873 118.383 123.01C118.151 123.138 117.958 123.323 117.806 123.563C117.653 123.804 117.541 124.096 117.469 124.441C117.405 124.786 117.373 125.167 117.373 125.584V126.955C117.373 127.38 117.405 127.765 117.469 128.109C117.541 128.446 117.653 128.735 117.806 128.975C117.958 129.216 118.151 129.404 118.383 129.541C118.616 129.669 118.9 129.733 119.237 129.733ZM131.478 126.257V123.599H131.382L129.614 127.917L127.846 123.599H127.75V126.257V130.467H126.824V122.072H128.123L129.602 125.776H129.674L131.153 122.072H132.404V130.467H131.478V126.257ZM137.393 130.467V129.661H139.486V122.877H137.393V122.072H142.589V122.877H140.496V129.661H142.589V130.467H137.393ZM148.852 130.467H147.842V122.072H150.897C151.675 122.072 152.268 122.284 152.677 122.709C153.086 123.134 153.29 123.727 153.29 124.489C153.29 125.171 153.114 125.716 152.761 126.125C152.408 126.534 151.895 126.77 151.222 126.835L153.363 130.467H152.232L150.187 126.883H148.852V130.467ZM150.873 126.029C151.298 126.029 151.627 125.924 151.859 125.716C152.1 125.499 152.22 125.195 152.22 124.802V124.176C152.22 123.784 152.1 123.483 151.859 123.274C151.627 123.058 151.298 122.95 150.873 122.95H148.852V126.029H150.873ZM160.72 130.611C159.967 130.611 159.349 130.475 158.868 130.202C158.387 129.922 157.99 129.565 157.678 129.132L158.411 128.53C158.74 128.939 159.085 129.244 159.446 129.444C159.814 129.645 160.251 129.745 160.757 129.745C161.366 129.745 161.831 129.605 162.152 129.324C162.472 129.044 162.633 128.651 162.633 128.146C162.633 127.737 162.517 127.42 162.284 127.195C162.052 126.963 161.647 126.798 161.069 126.702L160.131 126.546C159.722 126.474 159.377 126.365 159.097 126.221C158.824 126.077 158.604 125.904 158.435 125.704C158.267 125.495 158.147 125.271 158.074 125.03C158.002 124.782 157.966 124.525 157.966 124.261C157.966 123.491 158.219 122.91 158.724 122.517C159.229 122.124 159.911 121.927 160.769 121.927C161.442 121.927 162.007 122.04 162.464 122.264C162.93 122.489 163.302 122.805 163.583 123.214L162.873 123.828C162.641 123.523 162.36 123.274 162.031 123.082C161.703 122.89 161.278 122.793 160.757 122.793C160.187 122.793 159.75 122.914 159.446 123.154C159.141 123.395 158.989 123.755 158.989 124.237C158.989 124.613 159.101 124.922 159.325 125.163C159.558 125.395 159.971 125.564 160.564 125.668L161.466 125.824C161.875 125.896 162.22 126.005 162.501 126.149C162.781 126.293 163.006 126.466 163.174 126.666C163.35 126.867 163.475 127.091 163.547 127.34C163.619 127.588 163.655 127.849 163.655 128.121C163.655 128.899 163.399 129.509 162.885 129.95C162.38 130.391 161.659 130.611 160.72 130.611ZM170.749 126.353L169.546 127.773V130.467H168.536V122.072H169.546V126.45H169.582L170.688 125.054L173.166 122.072H174.381L171.434 125.608L174.465 130.467H173.286L170.749 126.353ZM183.675 130.467L182.966 128.073H180.019L179.309 130.467H178.263L180.837 122.072H182.172L184.746 130.467H183.675ZM181.546 123.142H181.438L180.259 127.195H182.725L181.546 123.142ZM191.37 130.467V127.171L188.471 122.072H189.626L190.829 124.261L191.851 126.173H191.899L192.946 124.261L194.148 122.072H195.279L192.38 127.171V130.467H191.37ZM204.429 130.467L203.719 128.073H200.773L200.063 130.467H199.017L201.591 122.072H202.926L205.499 130.467H204.429ZM202.3 123.142H202.192L201.013 127.195H203.479L202.3 123.142Z" fill="white"/>
<rect x="43.8008" y="247.062" width="0.633022" height="0.633022" fill="#EDEDED"/>
<g opacity="0.2">
<rect x="86.0244" y="237.062" width="0.633022" height="0.633022" transform="rotate(-180 86.0244 237.062)" fill="#EDEDED"/>
</g>
<g opacity="0.2">
<rect x="86.0244" y="226.93" width="0.633022" height="0.633022" transform="rotate(-180 86.0244 226.93)" fill="#EDEDED"/>
</g>
<g opacity="0.2">
<rect x="75.8955" y="237.061" width="0.633022" height="0.633022" transform="rotate(-180 75.8955 237.061)" fill="#EDEDED"/>
</g>
<g opacity="0.2">
<rect x="75.8955" y="226.934" width="0.633022" height="0.633022" transform="rotate(-180 75.8955 226.934)" fill="#EDEDED"/>
</g>
<g opacity="0.4">
<rect width="0.633022" height="0.633022" transform="matrix(4.37114e-08 1 1 -4.37114e-08 251.898 250.543)" fill="#EDEDED"/>
</g>
<g opacity="0.4">
<rect width="0.633022" height="0.633022" transform="matrix(4.37114e-08 1 1 -4.37114e-08 231.957 240.414)" fill="#EDEDED"/>
</g>
<g opacity="0.4">
<rect width="0.633022" height="0.633022" transform="matrix(4.37114e-08 1 1 -4.37114e-08 251.898 240.414)" fill="#EDEDED"/>
</g>
<g opacity="0.4">
<rect width="0.633022" height="0.633022" transform="matrix(4.37114e-08 1 1 -4.37114e-08 241.77 240.414)" fill="#EDEDED"/>
</g>
<g opacity="0.4">
<rect width="0.633022" height="0.633022" transform="matrix(4.37114e-08 1 1 -4.37114e-08 241.77 250.543)" fill="#EDEDED"/>
</g>
<g opacity="0.4">
<rect width="0.633022" height="0.633022" transform="matrix(4.37114e-08 1 1 -4.37114e-08 231.642 250.545)" fill="#EDEDED"/>
</g>
<g opacity="0.4">
<rect width="0.633022" height="0.633022" transform="matrix(-1.31134e-07 -1 -1 1.31134e-07 252.66 241.494)" fill="#707070"/>
</g>
<g opacity="0.4">
<rect width="0.633022" height="0.633022" transform="matrix(4.37114e-08 1 1 -4.37114e-08 221.514 240.732)" fill="#707070"/>
</g>
<path d="M120.2 319.858C116.158 319.858 112.636 319.092 109.635 317.561C106.695 316.03 104.399 313.825 102.745 310.946C101.153 308.006 100.356 304.546 100.356 300.565V270.248C100.356 266.206 101.153 262.745 102.745 259.867C104.399 256.988 106.695 254.783 109.635 253.252C112.636 251.721 116.158 250.955 120.2 250.955C124.243 250.955 127.734 251.751 130.674 253.344C133.613 254.875 135.88 257.08 137.472 259.958C139.064 262.837 139.861 266.267 139.861 270.248H131.592C131.592 266.451 130.582 263.541 128.561 261.52C126.601 259.438 123.814 258.397 120.2 258.397C116.587 258.397 113.739 259.407 111.656 261.428C109.635 263.449 108.625 266.359 108.625 270.156V300.565C108.625 304.362 109.635 307.302 111.656 309.385C113.739 311.467 116.587 312.508 120.2 312.508C123.814 312.508 126.601 311.467 128.561 309.385C130.582 307.302 131.592 304.362 131.592 300.565V291.378L121.829 291.378V283.845L139.861 283.845V300.565C139.861 304.485 139.064 307.915 137.472 310.854C135.88 313.733 133.613 315.969 130.674 317.561C127.734 319.092 124.243 319.858 120.2 319.858Z" fill="white"/>
<g filter="url(#filter1_dd_273_43384)">
<path d="M136.015 53.596C136.001 52.7051 134.865 52.3227 134.305 53.0205L125.849 63.5504C124.851 64.7933 125.746 66.6262 127.351 66.6262H136.096L136.199 73.4111C136.212 74.302 137.349 74.6843 137.909 73.9866L146.365 63.4567C147.363 62.2138 146.468 60.3809 144.863 60.3809H136.06L136.015 53.596Z" fill="white"/>
</g>
</g>
<rect x="10.4" y="10.4" width="257.694" height="407.348" rx="17.7399" stroke="url(#paint0_linear_273_43384)" stroke-width="0.8"/>
</g>
<defs>
<filter id="filter0_dd_273_43384" x="0.930035" y="0.930035" width="276.634" height="426.288" filterUnits="userSpaceOnUse" color-interpolation-filters="sRGB">
<feFlood flood-opacity="0" result="BackgroundImageFix"/>
<feColorMatrix in="SourceAlpha" type="matrix" values="0 0 0 0 0 0 0 0 0 0 0 0 0 0 0 0 0 0 127 0" result="hardAlpha"/>
<feMorphology radius="6.04664" operator="dilate" in="SourceAlpha" result="effect1_dropShadow_273_43384"/>
<feOffset/>
<feComposite in2="hardAlpha" operator="out"/>
<feColorMatrix type="matrix" values="0 0 0 0 0.156863 0 0 0 0 0.156863 0 0 0 0 0.156863 0 0 0 0.25 0"/>
<feBlend mode="normal" in2="BackgroundImageFix" result="effect1_dropShadow_273_43384"/>
<feColorMatrix in="SourceAlpha" type="matrix" values="0 0 0 0 0 0 0 0 0 0 0 0 0 0 0 0 0 0 127 0" result="hardAlpha"/>
<feOffset/>
<feGaussianBlur stdDeviation="4.53498"/>
<feComposite in2="hardAlpha" operator="out"/>
<feColorMatrix type="matrix" values="0 0 0 0 0 0 0 0 0 0 0 0 0 0 0 0 0 0 0.5 0"/>
<feBlend mode="normal" in2="effect1_dropShadow_273_43384" result="effect2_dropShadow_273_43384"/>
<feBlend mode="normal" in="SourceGraphic" in2="effect2_dropShadow_273_43384" result="shape"/>
</filter>
<filter id="filter1_dd_273_43384" x="121.872" y="49.1023" width="28.4702" height="28.8032" filterUnits="userSpaceOnUse" color-interpolation-filters="sRGB">
<feFlood flood-opacity="0" result="BackgroundImageFix"/>
<feColorMatrix in="SourceAlpha" type="matrix" values="0 0 0 0 0 0 0 0 0 0 0 0 0 0 0 0 0 0 127 0" result="hardAlpha"/>
<feOffset/>
<feGaussianBlur stdDeviation="1.77892"/>
<feComposite in2="hardAlpha" operator="out"/>
<feColorMatrix type="matrix" values="0 0 0 0 1 0 0 0 0 1 0 0 0 0 1 0 0 0 0.65 0"/>
<feBlend mode="normal" in2="BackgroundImageFix" result="effect1_dropShadow_273_43384"/>
<feColorMatrix in="SourceAlpha" type="matrix" values="0 0 0 0 0 0 0 0 0 0 0 0 0 0 0 0 0 0 127 0" result="hardAlpha"/>
<feOffset/>
<feGaussianBlur stdDeviation="0.711567"/>
<feComposite in2="hardAlpha" operator="out"/>
<feColorMatrix type="matrix" values="0 0 0 0 1 0 0 0 0 1 0 0 0 0 1 0 0 0 1 0"/>
<feBlend mode="normal" in2="effect1_dropShadow_273_43384" result="effect2_dropShadow_273_43384"/>
<feBlend mode="normal" in="SourceGraphic" in2="effect2_dropShadow_273_43384" result="shape"/>
</filter>
<linearGradient id="paint0_linear_273_43384" x1="239.97" y1="13.6043" x2="139.247" y2="418.148" gradientUnits="userSpaceOnUse">
<stop stop-color="#1D1D1D"/>
<stop offset="1" stop-color="#111111"/>
</linearGradient>
<clipPath id="clip0_273_43384">
<rect x="10" y="10" width="258.494" height="408.148" rx="18.1399" fill="white"/>
</clipPath>
</defs>
</svg>
